<svg xmlns="http://www.w3.org/2000/svg" width="36" height="38" fill="none"><path fill="url(#paint0_linear)" d="M31.97 26v-4.03h-3.94V26h3.94zm0 7.97v-3.94h-3.94v3.94h3.94zm-12-24V6.03h-3.94v3.94h3.94zm0 8.06V14h-3.94v4.03h3.94zm0 7.97v-4.03h-3.94V26h3.94zm0 7.97v-3.94h-3.94v3.94h3.94zm-12-15.94V14H4.03v4.03h3.94zm0 7.97v-4.03H4.03V26h3.94zm0 7.97v-3.94H4.03v3.94h3.94zM24 18.03h12V38H0V9.97h12V6.03l6-6 6 6v12z"/><defs><linearGradient id="paint0_linear" x1="18" x2="18" y1="-4" y2="44" gradientUnits="userSpaceOnUse"><stop stop-color="#BC9CFF"/><stop offset="1" stop-color="#8BA4F9"/></linearGradient></defs></svg>