<svg xmlns="http://www.w3.org/2000/svg" width="48" height="48" fill="none"><path fill="#1F2041" fill-opacity=".25" d="M24 32.47c-.78 0-1.41-.63-1.41-1.41a9.91 9.91 0 00-9.89-9.88c-.77 0-1.4-.64-1.4-1.41 0-.78.63-1.42 1.4-1.42a12.7 12.7 0 0112.71 12.7c0 .79-.63 1.42-1.41 1.42zM36.7 19.77c0 .77-.63 1.4-1.4 1.4a9.85 9.85 0 00-8.12 4.28c-.4-1-.85-1.9-1.41-2.76a12.59 12.59 0 019.53-4.34c.77 0 1.4.64 1.4 1.42z"/><path fill="#1F2041" fill-opacity=".25" d="M24 48C10.76 48 0 37.24 0 24S10.76 0 24 0s24 10.76 24 24-10.76 24-24 24zm0-45.18A21.2 21.2 0 002.82 24 21.2 21.2 0 0024 45.18 21.2 21.2 0 0045.18 24 21.2 21.2 0 0024 2.82z"/></svg>