<svg xmlns="http://www.w3.org/2000/svg" width="34" height="43" fill="none"><path fill="url(#paint0_linear)" d="M16.44 36.97c2.68 0 4.93-.9 6.75-2.72A9.31 9.31 0 0026 27.41c0-2.75-.38-5.44-1.13-8.07-1.93 2.57-5.03 4.29-9.28 5.16-3.75.81-5.62 2.88-5.62 6.19 0 1.75.62 3.25 1.87 4.5a6.42 6.42 0 004.6 1.78zM20 .3c4 3.25 7.16 7.22 9.47 11.9a31.97 31.97 0 013.56 14.82c0 4.38-1.56 8.13-4.69 11.25A15.45 15.45 0 0117 42.97c-4.44 0-8.22-1.56-11.34-4.69a15.34 15.34 0 01-4.7-11.25c0-6.75 2.17-12.69 6.48-17.81v.75c0 2.06.68 3.81 2.06 5.25a6.84 6.84 0 005.16 2.15c2 0 3.62-.68 4.87-2.06a7.63 7.63 0 001.97-5.34c0-1.25-.13-2.69-.38-4.31a38.2 38.2 0 00-.75-3.85L20 .31z"/><defs><linearGradient id="paint0_linear" x1="17" x2="17" y1="-1" y2="47" gradientUnits="userSpaceOnUse"><stop stop-color="#BC9CFF"/><stop offset="1" stop-color="#8BA4F9"/></linearGradient></defs></svg>